<svg width="318" height="338" viewBox="0 0 318 338" fill="none" xmlns="http://www.w3.org/2000/svg">
<g clip-path="url(#clip0_113_22)">
<path d="M261.25 89.44C255.61 135.72 250.88 147.27 221.98 154.67V161.88C250.87 169.28 255.61 180.83 261.25 227.11C267.86 172.88 273.22 166.34 317.66 158.28C273.22 150.22 267.86 143.68 261.25 89.45V89.44Z" fill="#2D2A26"/>
<path d="M221.98 66.22C221.98 51.1 217.29 31.26 234.46 22.68C240.52 19.66 248.29 19.5 254.09 22.95C259.89 26.4 263.12 33.58 261 39.73C264.39 35.82 266.3 30.86 266.57 25.83C266.74 22.64 266.25 19.43 265.06 16.44C257.06 -3.61 226.23 -2.16 208.92 4.28C196.42 8.94 186.36 17.63 179.64 28.54C168.88 46.02 166.31 67.23 166.31 87.08V283.05C166.31 319.79 162.99 332.95 143.08 332.95V335.22H245.21V332.95C225.3 332.95 221.99 319.79 221.99 283.05V66.22H221.98Z" fill="#2D2A26"/>
<path d="M85.43 173.87C86.36 173.9 87.28 173.94 88.22 173.94C116.64 173.94 141.85 161.31 157.98 141.77C149.76 145.33 140.63 147.38 130.98 147.38C95.41 147.38 66.57 120.39 66.57 87.09C66.57 53.79 95.41 26.8 130.98 26.8C135.83 26.8 140.54 27.34 145.08 28.29C129.72 16.15 109.9 8.80001 88.22 8.80001C39.5 8.79001 0 45.76 0 91.36C0 130.97 29.81 164.06 69.57 172.07C71.62 172.13 73.68 172.24 75.76 172.43C79.05 172.74 82.27 173.23 85.43 173.87Z" fill="#2D2A26"/>
<path d="M85.4299 173.87C82.2699 173.24 79.0499 172.75 75.7599 172.43C73.6799 172.23 71.6199 172.13 69.5699 172.07C43.6499 171.31 19.7099 181.26 2.88989 197.85C11.4499 195.08 20.7499 193.91 30.3599 194.82C65.7499 198.18 91.5399 227.76 87.9499 260.88C84.3599 294.01 52.7599 318.14 17.3699 314.79C12.5499 314.33 7.91989 313.35 3.49989 311.97C17.4699 325.5 36.3999 334.69 57.9699 336.73C106.44 341.33 149.72 308.27 154.63 262.9C159.21 220.61 128.83 182.55 85.4199 173.86L85.4299 173.87Z" fill="#2D2A26"/>
</g>
<defs>
<clipPath id="clip0_113_22">
<rect width="317.66" height="337.16" fill="white"/>
</clipPath>
</defs>
</svg>
