<svg width="59" height="61" viewBox="0 0 59 61" fill="none" xmlns="http://www.w3.org/2000/svg">
<g clip-path="url(#clip0_185_115)">
<path d="M48.5227 16.1816C47.4752 24.5548 46.5967 26.6444 41.229 27.9832V29.2877C46.5948 30.6265 47.4752 32.7162 48.5227 41.0893C49.7504 31.2779 50.746 30.0946 59 28.6364C50.746 27.1781 49.7504 25.9949 48.5227 16.1834V16.1816Z" fill="#F4EFF4"/>
<path d="M41.2291 11.9807C41.2291 9.24516 40.358 5.65564 43.547 4.10332C44.6725 3.55694 46.1157 3.52799 47.1929 4.15217C48.2702 4.77636 48.8701 6.07538 48.4764 7.18806C49.106 6.48065 49.4607 5.58327 49.5109 4.67323C49.5425 4.09609 49.4515 3.51532 49.2304 2.97436C47.7446 -0.653142 42.0184 -0.390804 38.8034 0.77434C36.4817 1.61744 34.6132 3.18966 33.3651 5.16353C31.3666 8.32607 30.8893 12.1634 30.8893 15.7548V51.2102C30.8893 57.8574 30.2727 60.2383 26.5747 60.2383V60.649H45.5436V60.2383C41.8457 60.2383 41.2309 57.8574 41.2309 51.2102V11.9807H41.2291Z" fill="#F4EFF4"/>
<path d="M15.8672 31.457C16.0399 31.4624 16.2108 31.4697 16.3854 31.4697C21.6639 31.4697 26.3462 29.1846 29.3421 25.6494C27.8154 26.2935 26.1197 26.6644 24.3273 26.6644C17.7208 26.6644 12.3643 21.7812 12.3643 15.7565C12.3643 9.73177 17.7208 4.84866 24.3273 4.84866C25.2281 4.84866 26.1029 4.94635 26.9462 5.11823C24.0933 2.92183 20.4121 1.59204 16.3854 1.59204C7.33646 1.59023 0 8.27896 0 16.529C0 23.6954 5.53671 29.6821 12.9215 31.1313C13.3022 31.1422 13.6848 31.1621 14.0711 31.1965C14.6822 31.2526 15.2803 31.3412 15.8672 31.457Z" fill="#F4EFF4"/>
<path d="M15.8672 31.457C15.2802 31.3431 14.6822 31.2544 14.0711 31.1965C13.6848 31.1603 13.3022 31.1422 12.9214 31.1314C8.10723 30.9939 3.66077 32.7941 0.536743 35.7956C2.12662 35.2944 3.85394 35.0827 5.63883 35.2474C12.2119 35.8553 17.002 41.207 16.3352 47.1991C15.6684 53.1931 9.79926 57.5588 3.22616 56.9527C2.33093 56.8695 1.47098 56.6922 0.65004 56.4425C3.24473 58.8904 6.76066 60.5531 10.7669 60.9222C19.7694 61.7544 27.8079 55.7731 28.7199 47.5646C29.5706 39.9134 23.928 33.0274 15.8653 31.4552L15.8672 31.457Z" fill="#F4EFF4"/>
</g>
<defs>
<clipPath id="clip0_185_115">
<rect width="59" height="61" fill="white"/>
</clipPath>
</defs>
</svg>
